<svg width="95" height="21" viewBox="0 0 95 21" fill="none" xmlns="http://www.w3.org/2000/svg">
<path d="M16 8.5C16 14.3333 8.5 19.3333 8.5 19.3333C8.5 19.3333 1 14.3333 1 8.5C1 6.51088 1.79018 4.60322 3.1967 3.1967C4.60322 1.79018 6.51088 1 8.5 1C10.4891 1 12.3968 1.79018 13.8033 3.1967C15.2098 4.60322 16 6.51088 16 8.5Z" stroke="#999999" stroke-width="2" stroke-linecap="round" stroke-linejoin="round"/>
<path d="M8.5 11C9.88071 11 11 9.88071 11 8.5C11 7.11929 9.88071 6 8.5 6C7.11929 6 6 7.11929 6 8.5C6 9.88071 7.11929 11 8.5 11Z" stroke="#999999" stroke-width="2" stroke-linecap="round" stroke-linejoin="round"/>
<path d="M27.7383 11.8649L30.3701 5.21356H31.8877L28.3672 13.5056C28.2669 13.738 28.1553 13.9636 28.0322 14.1823C27.9092 14.3965 27.7588 14.5879 27.5811 14.7565C27.4033 14.9252 27.1823 15.0596 26.918 15.1599C26.6582 15.2601 26.3346 15.3102 25.9473 15.3102C25.8379 15.3102 25.708 15.3034 25.5576 15.2897C25.4072 15.2806 25.3092 15.2692 25.2637 15.2556L25.3047 14.2028C25.3548 14.2119 25.4528 14.221 25.5986 14.2302C25.7445 14.2347 25.8516 14.237 25.9199 14.237C26.1797 14.237 26.3848 14.1846 26.5352 14.0798C26.6855 13.975 26.8063 13.8428 26.8975 13.6833C26.9932 13.5192 27.0798 13.3529 27.1572 13.1843L27.7383 11.8649ZM25.5029 5.21356L28.2715 11.4138L28.5996 12.6374L27.4922 12.7194L24.0264 5.21356H25.5029ZM37.7324 7.7702V8.8161H34.1572V7.7702H37.7324ZM38.8467 7.7702V15.1667H37.582V7.7702H38.8467ZM33.8496 7.7702H35.1211L34.9297 11.3386C34.8978 11.89 34.8454 12.3776 34.7725 12.8015C34.7041 13.2207 34.6084 13.5807 34.4854 13.8815C34.3669 14.1823 34.2165 14.4284 34.0342 14.6198C33.8564 14.8067 33.6423 14.9457 33.3916 15.0368C33.141 15.1234 32.8516 15.1667 32.5234 15.1667H32.127V14.0524L32.4004 14.0319C32.5964 14.0182 32.7627 13.9727 32.8994 13.8952C33.0407 13.8177 33.1592 13.7038 33.2549 13.5534C33.3506 13.3985 33.4281 13.2002 33.4873 12.9587C33.5511 12.7171 33.599 12.43 33.6309 12.0974C33.6673 11.7647 33.6947 11.3773 33.7129 10.9352L33.8496 7.7702ZM41.9229 10.3132H44.1445C44.7415 10.3132 45.2451 10.418 45.6553 10.6276C46.0654 10.8327 46.3753 11.1175 46.585 11.4821C46.7992 11.8421 46.9062 12.2523 46.9062 12.7126C46.9062 13.0544 46.847 13.3757 46.7285 13.6765C46.61 13.9727 46.4323 14.2324 46.1953 14.4557C45.9629 14.6791 45.6735 14.8545 45.3271 14.9821C44.9854 15.1052 44.5911 15.1667 44.1445 15.1667H41V7.7702H42.2646V14.1276H44.1445C44.5091 14.1276 44.8008 14.0615 45.0195 13.9294C45.2383 13.7972 45.3955 13.6263 45.4912 13.4167C45.5869 13.2071 45.6348 12.9883 45.6348 12.7604C45.6348 12.5371 45.5869 12.3184 45.4912 12.1042C45.3955 11.89 45.2383 11.7123 45.0195 11.571C44.8008 11.4252 44.5091 11.3522 44.1445 11.3522H41.9229V10.3132ZM49.9824 11.6393H51.3496L49.21 15.1667H47.8428L49.9824 11.6393ZM51.042 7.7702H54.1318V15.1667H52.8672V8.79559H51.042C50.682 8.79559 50.388 8.85712 50.1602 8.98016C49.9323 9.09865 49.766 9.2536 49.6611 9.44501C49.5563 9.63641 49.5039 9.83466 49.5039 10.0397C49.5039 10.2403 49.5518 10.4339 49.6475 10.6208C49.7432 10.8031 49.8936 10.9535 50.0986 11.072C50.3037 11.1905 50.568 11.2497 50.8916 11.2497H53.209V12.2888H50.8916C50.4678 12.2888 50.0918 12.2318 49.7637 12.1179C49.4355 12.0039 49.1576 11.8467 48.9297 11.6462C48.7018 11.4411 48.5286 11.2018 48.4102 10.9284C48.2917 10.6504 48.2324 10.3496 48.2324 10.0261C48.2324 9.70249 48.2939 9.40399 48.417 9.13055C48.5446 8.85712 48.7269 8.61786 48.9639 8.41278C49.2054 8.2077 49.4993 8.05048 49.8457 7.9411C50.1966 7.82717 50.5954 7.7702 51.042 7.7702ZM61.1865 10.9763V12.0016H57.2764V10.9763H61.1865ZM57.543 7.7702V15.1667H56.2783V7.7702H57.543ZM62.2119 7.7702V15.1667H60.9404V7.7702H62.2119ZM63.9141 11.5505V11.3932C63.9141 10.86 63.9915 10.3656 64.1465 9.90985C64.3014 9.44956 64.5247 9.0508 64.8164 8.71356C65.1081 8.37177 65.4613 8.10744 65.876 7.92059C66.2907 7.72919 66.7555 7.63348 67.2705 7.63348C67.79 7.63348 68.2572 7.72919 68.6719 7.92059C69.0911 8.10744 69.4466 8.37177 69.7383 8.71356C70.0345 9.0508 70.2601 9.44956 70.415 9.90985C70.57 10.3656 70.6475 10.86 70.6475 11.3932V11.5505C70.6475 12.0837 70.57 12.5781 70.415 13.0339C70.2601 13.4896 70.0345 13.8884 69.7383 14.2302C69.4466 14.5674 69.0934 14.8317 68.6787 15.0231C68.2686 15.21 67.8037 15.3034 67.2842 15.3034C66.7646 15.3034 66.2975 15.21 65.8828 15.0231C65.4681 14.8317 65.1126 14.5674 64.8164 14.2302C64.5247 13.8884 64.3014 13.4896 64.1465 13.0339C63.9915 12.5781 63.9141 12.0837 63.9141 11.5505ZM65.1787 11.3932V11.5505C65.1787 11.9196 65.222 12.2682 65.3086 12.5964C65.3952 12.9199 65.5251 13.2071 65.6982 13.4577C65.876 13.7084 66.097 13.9066 66.3613 14.0524C66.6257 14.1937 66.9333 14.2643 67.2842 14.2643C67.6305 14.2643 67.9336 14.1937 68.1934 14.0524C68.4577 13.9066 68.6764 13.7084 68.8496 13.4577C69.0228 13.2071 69.1527 12.9199 69.2393 12.5964C69.3304 12.2682 69.376 11.9196 69.376 11.5505V11.3932C69.376 11.0287 69.3304 10.6846 69.2393 10.361C69.1527 10.0329 69.0205 9.74351 68.8428 9.49286C68.6696 9.23765 68.4508 9.03713 68.1865 8.8913C67.9268 8.74546 67.6214 8.67255 67.2705 8.67255C66.9242 8.67255 66.6188 8.74546 66.3545 8.8913C66.0947 9.03713 65.876 9.23765 65.6982 9.49286C65.5251 9.74351 65.3952 10.0329 65.3086 10.361C65.222 10.6846 65.1787 11.0287 65.1787 11.3932ZM75.7061 11.9128H73.2793L73.2656 10.9011H75.248C75.64 10.9011 75.9658 10.8623 76.2256 10.7849C76.4899 10.7074 76.6882 10.5912 76.8203 10.4362C76.9525 10.2813 77.0186 10.0899 77.0186 9.862C77.0186 9.68427 76.9798 9.52932 76.9023 9.39716C76.8294 9.26044 76.7178 9.14878 76.5674 9.06219C76.417 8.97105 76.2301 8.90497 76.0068 8.86395C75.7881 8.81838 75.5306 8.79559 75.2344 8.79559H73.6143V15.1667H72.3496V7.7702H75.2344C75.7038 7.7702 76.1253 7.81122 76.499 7.89325C76.8773 7.97528 77.1986 8.10061 77.4629 8.26923C77.7318 8.43329 77.9368 8.64292 78.0781 8.89813C78.2194 9.15334 78.29 9.45412 78.29 9.80048C78.29 10.0238 78.2445 10.2357 78.1533 10.4362C78.0622 10.6367 77.9277 10.8145 77.75 10.9694C77.5723 11.1244 77.3535 11.252 77.0938 11.3522C76.834 11.4479 76.5355 11.5095 76.1982 11.5368L75.7061 11.9128ZM75.7061 15.1667H72.8213L73.4502 14.1413H75.7061C76.057 14.1413 76.3486 14.098 76.5811 14.0114C76.8135 13.9203 76.9867 13.7927 77.1006 13.6286C77.2191 13.46 77.2783 13.2595 77.2783 13.027C77.2783 12.7946 77.2191 12.5964 77.1006 12.4323C76.9867 12.2637 76.8135 12.1361 76.5811 12.0495C76.3486 11.9584 76.057 11.9128 75.7061 11.9128H73.7852L73.7988 10.9011H76.1982L76.6562 11.2839C77.0618 11.3158 77.4059 11.416 77.6885 11.5847C77.971 11.7533 78.1852 11.9675 78.3311 12.2272C78.4769 12.4824 78.5498 12.7604 78.5498 13.0612C78.5498 13.4076 78.4837 13.7129 78.3516 13.9772C78.224 14.2416 78.0371 14.4626 77.791 14.6403C77.5449 14.8135 77.2464 14.9457 76.8955 15.0368C76.5446 15.1234 76.1481 15.1667 75.7061 15.1667ZM83.2051 14.2643C83.5059 14.2643 83.7839 14.2028 84.0391 14.0798C84.2943 13.9567 84.5039 13.7881 84.668 13.5739C84.832 13.3552 84.9255 13.1068 84.9482 12.8288H86.1514C86.1286 13.2663 85.9805 13.6742 85.707 14.0524C85.4382 14.4261 85.085 14.7292 84.6475 14.9616C84.21 15.1895 83.7292 15.3034 83.2051 15.3034C82.6491 15.3034 82.1637 15.2054 81.749 15.0095C81.3389 14.8135 80.9971 14.5446 80.7236 14.2028C80.4548 13.861 80.252 13.4691 80.1152 13.027C79.9831 12.5804 79.917 12.1087 79.917 11.612V11.3249C79.917 10.8281 79.9831 10.3587 80.1152 9.91669C80.252 9.47007 80.4548 9.07587 80.7236 8.73407C80.9971 8.39227 81.3389 8.12339 81.749 7.92743C82.1637 7.73147 82.6491 7.63348 83.2051 7.63348C83.7839 7.63348 84.2897 7.75197 84.7227 7.98895C85.1556 8.22137 85.4951 8.54038 85.7412 8.94598C85.9919 9.34703 86.1286 9.80275 86.1514 10.3132H84.9482C84.9255 10.0078 84.8389 9.73212 84.6885 9.48602C84.5426 9.23993 84.3421 9.04397 84.0869 8.89813C83.8363 8.74774 83.5423 8.67255 83.2051 8.67255C82.8177 8.67255 82.4919 8.75002 82.2275 8.90497C81.9678 9.05536 81.7604 9.26044 81.6055 9.5202C81.4551 9.77541 81.3457 10.0602 81.2773 10.3747C81.2135 10.6846 81.1816 11.0013 81.1816 11.3249V11.612C81.1816 11.9356 81.2135 12.2546 81.2773 12.569C81.3411 12.8835 81.4482 13.1683 81.5986 13.4235C81.7536 13.6787 81.9609 13.8838 82.2207 14.0388C82.485 14.1891 82.8132 14.2643 83.2051 14.2643ZM88.9473 7.7702V15.1667H87.6826V7.7702H88.9473ZM93.8008 7.7702L90.2939 12.0085H88.5234L88.332 10.9011H89.7812L92.2627 7.7702H93.8008ZM92.4404 15.1667L89.7197 11.8171L90.5332 10.9011L94.0469 15.1667H92.4404Z" fill="#999999"/>
</svg>
